<svg width="14" height="19" viewBox="0 0 14 19" fill="none" xmlns="http://www.w3.org/2000/svg">
<path d="M13.6909 10.989C13.4853 8.39146 12.2393 6.76372 11.1401 5.32732C10.1222 3.99753 9.2431 2.84919 9.2431 1.15522C9.2431 1.01915 9.16459 0.894783 9.0401 0.83243C8.91523 0.769703 8.76519 0.779976 8.65167 0.860052C7.00078 2.00663 5.62333 3.93909 5.14216 5.78295C4.80812 7.06664 4.76393 8.50977 4.75772 9.46289C3.23314 9.14684 2.88778 6.93343 2.88414 6.90931C2.86697 6.79451 2.7947 6.6946 2.68955 6.64004C2.58332 6.58619 2.45845 6.58227 2.35075 6.63401C2.2708 6.67157 0.388424 7.59989 0.2789 11.3064C0.271224 11.4297 0.270874 11.5534 0.270874 11.6771C0.270874 15.278 3.28971 18.2079 7.00004 18.2079C7.00516 18.2082 7.01063 18.2089 7.01501 18.2079C7.01648 18.2079 7.01792 18.2079 7.01974 18.2079C10.721 18.1976 13.7292 15.2716 13.7292 11.6771C13.7292 11.496 13.6909 10.989 13.6909 10.989ZM7.00004 17.4822C5.76314 17.4822 4.75699 16.4419 4.75699 15.1632C4.75699 15.1196 4.75663 15.0757 4.75989 15.0218C4.77486 14.4826 4.88039 14.1144 4.99612 13.8696C5.21299 14.3217 5.60069 14.7373 6.23046 14.7373C6.4371 14.7373 6.60432 14.575 6.60432 14.3745C6.60432 13.8579 6.61529 13.2619 6.7478 12.7241C6.86574 12.2471 7.14756 11.7397 7.50462 11.333C7.66343 11.861 7.97304 12.2882 8.27532 12.7053C8.70795 13.3019 9.15516 13.9188 9.23367 14.9708C9.2384 15.0332 9.24317 15.0959 9.24317 15.1632C9.2431 16.4419 8.23695 17.4822 7.00004 17.4822Z" fill="white"/>
</svg>
