<svg width="17" height="17" viewBox="0 0 17 17" fill="none" xmlns="http://www.w3.org/2000/svg">
<path fill-rule="evenodd" clip-rule="evenodd" d="M0.583374 8.5045C0.583374 4.13487 4.1367 0.583252 8.50004 0.583252C12.8634 0.583252 16.4167 4.13487 16.4167 8.5045C16.4167 12.865 12.8634 16.4166 8.50004 16.4166C4.1367 16.4166 0.583374 12.865 0.583374 8.5045ZM11.4038 9.30572C11.4879 9.2217 11.5949 9.09186 11.6178 9.0613C11.7401 8.90091 11.8012 8.70232 11.8012 8.5045C11.8012 8.28224 11.7324 8.07602 11.6025 7.90798C11.5919 7.89734 11.571 7.87465 11.5439 7.84508C11.493 7.78976 11.4201 7.71034 11.3503 7.64066C10.7237 6.96852 9.08844 5.86867 8.23259 5.5326C8.10268 5.4799 7.77409 5.36457 7.59834 5.35693C7.43022 5.35693 7.26975 5.39512 7.11692 5.4715C6.92588 5.57843 6.77305 5.74646 6.68899 5.94505C6.6355 6.08253 6.55144 6.49497 6.55144 6.50261C6.46738 6.95325 6.42153 7.68648 6.42153 8.4961C6.42153 9.26829 6.46738 9.97021 6.53616 10.4285C6.53805 10.4304 6.54462 10.4632 6.55483 10.5141C6.58588 10.6689 6.65055 10.9913 6.71955 11.1235C6.88767 11.4443 7.21626 11.6429 7.56777 11.6429H7.59834C7.82758 11.6353 8.309 11.4367 8.309 11.429C9.11901 11.093 10.7161 10.0466 11.358 9.35154L11.4038 9.30572Z" fill="white"/>
</svg>
